<?xml version="1.0" encoding="UTF-8"?>
<!DOCTYPE svg PUBLIC "-//W3C//DTD SVG 1.1//EN" "http://www.w3.org/Graphics/SVG/1.1/DTD/svg11.dtd">
<!-- Creator: CorelDRAW -->
<svg xmlns="http://www.w3.org/2000/svg" xml:space="preserve" width="210mm" height="148mm" version="1.1" style="shape-rendering:geometricPrecision; text-rendering:geometricPrecision; image-rendering:optimizeQuality; fill-rule:evenodd; clip-rule:evenodd"
viewBox="0 0 21000 14800"
 xmlns:xlink="http://www.w3.org/1999/xlink"
 xmlns:xodm="http://www.corel.com/coreldraw/odm/2003">
 <defs>
  <style type="text/css">
   <![CDATA[
    .fil2 {fill:#FEFEFE}
    .fil0 {fill:#22293B}
    .fil1 {fill:white}
   ]]>
  </style>
 </defs>
 <g id="Capa_x0020_1">
  <metadata id="CorelCorpID_0Corel-Layer"/>
  <path class="fil0" d="M10500 192.47c3986.66,0 7218.48,3226.91 7218.48,7207.54 0,3980.6 -3231.82,7207.52 -7218.48,7207.52 -872.06,0 -1645.68,-154.01 -2422.21,-429.1 -788.22,-279.21 -1496.93,-211.09 -2096.49,-70.2 -298.78,70.22 -545.06,184.15 -811.29,231.28 -230.45,40.77 -455.46,22.93 -671.21,-55.77 -208.11,-75.94 -407.69,-208.53 -595.14,-399.69 -705.31,-719.18 -202.4,-1507.68 -67.67,-2328.06 89.45,-544.83 57.58,-1173.54 -158.72,-1797.07 -256.35,-739.03 -395.75,-1532.73 -395.75,-2358.91 0,-3980.63 3231.82,-7207.54 7218.48,-7207.54z"/>
  <g>
   <path class="fil1" d="M5554.7 6150.17l0 3964.88c0,0 268.95,806.87 876.26,208.23l26.03 -1049.8c0,0 95.42,-260.26 381.73,-234.23 0,0 633.39,190.8 1119.21,8.65 1061.86,-398.16 1189.69,-1900.14 618.28,-2774.09 -332.39,-508.41 -1004.41,-722.05 -1815.57,-401.28 0,0 -225.59,86.75 -581.29,-52.06 -355.7,-138.81 -598.63,112.81 -624.65,286.31l0 43.39zm1648.42 156.15c440.79,0 798.18,516.61 798.18,1153.9 0,637.28 -357.39,1153.89 -798.18,1153.89 -440.83,0 -798.19,-516.61 -798.19,-1153.89 0,-637.29 357.36,-1153.9 798.19,-1153.9z"/>
  </g>
  <rect class="fil1" x="9463.15" y="4596.5" width="904.48" height="4522.6" rx="73.38" ry="71.32"/>
  <path class="fil1" d="M11082.13 5840.17l757.75 0c40.37,0 73.37,33.02 73.37,73.37l0 3132.21c0,40.35 -33.02,73.37 -73.37,73.37l-757.75 0c-40.34,0 -73.36,-33 -73.36,-73.37l0 -3132.21c0,-40.37 32.99,-73.37 73.36,-73.37z"/>
  <ellipse class="fil2" cx="11451.99" cy="5118.79" rx="457.33" ry="443.21"/>
  <path class="fil1" d="M13474.07 6795.73l0 2011.26c0,177.99 -145.61,323.6 -323.6,323.6l-236.19 0c-177.99,0 -323.6,-145.61 -323.6,-323.6l0 -1798.87c-30.06,-536.86 -165.18,-1355.97 709.62,-1130.87 521.9,115.48 518.53,-13.73 923.76,-97.21 252.31,-51.97 727.38,-88.71 1020.68,269.78 230.39,281.57 199.11,425.2 199.11,745.91l0 2011.26c0,177.99 -145.61,323.6 -323.6,323.6l-236.18 0c-177.99,0 -323.6,-145.61 -323.6,-323.6l0 -2011.26c0,-310.02 -257.27,-538.24 -578.21,-526 -293.74,11.2 -508.19,292.83 -508.19,526z"/>
 </g>
</svg>
