<svg width="202" height="289" viewBox="0 0 202 289" fill="none" xmlns="http://www.w3.org/2000/svg">
<path d="M24.9139 146.211L26.5415 148.269C27.2479 147.71 27.6184 146.828 27.5227 145.932L24.9139 146.211ZM32.7848 102.325L30.6263 100.834L32.7848 102.325ZM170.644 104.949L168.41 106.324L168.41 106.324L170.644 104.949ZM176.607 146.211L174.008 145.85C173.879 146.777 174.254 147.702 174.991 148.278L176.607 146.211ZM192.349 186.996L189.797 186.384L192.349 186.996ZM11.5574 193.675L13.9207 192.535L11.5574 193.675ZM26.3852 211.616C27.6813 212.264 29.2571 211.738 29.9048 210.442C30.5525 209.146 30.0268 207.57 28.7306 206.923L26.3852 211.616ZM172.302 206.918C171.003 207.56 170.471 209.134 171.113 210.432C171.756 211.731 173.329 212.264 174.628 211.621L172.302 206.918ZM40.534 97.1524C41.5599 96.1291 41.562 94.4679 40.5387 93.442C39.5154 92.4161 37.8542 92.4141 36.8283 93.4373L40.534 97.1524ZM164.76 93.425C163.727 92.4086 162.066 92.4218 161.05 93.4545C160.033 94.4872 160.046 96.1483 161.079 97.1647L164.76 93.425ZM24.9139 146.211C27.5227 145.932 27.5228 145.933 27.5228 145.933C27.5228 145.933 27.5228 145.933 27.5228 145.933C27.5228 145.933 27.5228 145.933 27.5227 145.932C27.5225 145.93 27.5221 145.926 27.5216 145.921C27.5205 145.911 27.5187 145.893 27.5163 145.87C27.5116 145.822 27.5045 145.749 27.4954 145.65C27.4773 145.453 27.4515 145.157 27.4221 144.772C27.3634 144 27.2905 142.872 27.236 141.466C27.1268 138.65 27.0921 134.736 27.3885 130.348C27.9886 121.464 29.921 111.086 34.9433 103.816L30.6263 100.834C24.7725 109.306 22.7695 120.871 22.1532 129.994C21.8414 134.61 21.8782 138.716 21.9927 141.669C22.05 143.147 22.1269 144.341 22.19 145.17C22.2216 145.585 22.2497 145.909 22.2703 146.132C22.2806 146.243 22.289 146.33 22.295 146.39C22.298 146.42 22.3003 146.443 22.3021 146.46C22.3029 146.468 22.3036 146.475 22.3041 146.48C22.3044 146.482 22.3046 146.484 22.3048 146.486C22.3049 146.487 22.305 146.488 22.305 146.488C22.3051 146.489 22.3052 146.49 24.9139 146.211ZM168.41 106.324C172.816 113.484 174.288 123.239 174.581 131.487C174.726 135.563 174.581 139.172 174.4 141.76C174.309 143.053 174.209 144.087 174.133 144.793C174.095 145.145 174.063 145.416 174.041 145.595C174.03 145.685 174.021 145.751 174.016 145.794C174.013 145.816 174.011 145.831 174.009 145.84C174.009 145.845 174.008 145.848 174.008 145.85C174.008 145.851 174.008 145.851 174.008 145.851C174.008 145.851 174.008 145.851 174.008 145.851C174.008 145.851 174.008 145.85 176.607 146.211C179.205 146.572 179.206 146.571 179.206 146.571C179.206 146.57 179.206 146.569 179.206 146.568C179.206 146.567 179.206 146.565 179.207 146.563C179.207 146.558 179.208 146.552 179.209 146.544C179.211 146.529 179.214 146.507 179.218 146.479C179.225 146.424 179.236 146.344 179.248 146.241C179.274 146.035 179.309 145.737 179.35 145.355C179.433 144.591 179.538 143.492 179.634 142.127C179.825 139.402 179.978 135.602 179.825 131.3C179.522 122.793 178.013 111.916 172.878 103.574L168.41 106.324ZM176.607 146.211C174.991 148.278 174.99 148.278 174.99 148.277C174.99 148.277 174.989 148.276 174.989 148.276C174.988 148.276 174.988 148.276 174.988 148.276C174.989 148.276 174.99 148.278 174.993 148.28C174.999 148.284 175.01 148.293 175.026 148.306C175.057 148.331 175.107 148.372 175.176 148.428C175.313 148.541 175.521 148.716 175.788 148.951C176.323 149.421 177.095 150.129 178.009 151.055C179.841 152.91 182.226 155.621 184.433 159.035C188.854 165.872 192.451 175.328 189.797 186.384L194.9 187.609C198.002 174.682 193.728 163.746 188.839 156.186C186.392 152.401 183.761 149.412 181.743 147.368C180.731 146.344 179.868 145.551 179.25 145.008C178.941 144.737 178.693 144.528 178.518 144.383C178.43 144.311 178.361 144.254 178.311 144.214C178.286 144.194 178.266 144.178 178.251 144.167C178.244 144.161 178.238 144.156 178.233 144.152C178.231 144.15 178.229 144.149 178.227 144.147C178.226 144.147 178.225 144.146 178.224 144.145C178.223 144.145 178.222 144.144 176.607 146.211ZM13.9207 192.535C7.97833 180.21 11.0033 169.291 15.6749 161.242C18.0179 157.206 20.7538 153.942 22.9124 151.683C23.9886 150.557 24.9133 149.69 25.5615 149.11C25.8854 148.82 26.1395 148.602 26.3083 148.461C26.3926 148.39 26.4555 148.338 26.4951 148.306C26.5148 148.29 26.5288 148.279 26.5366 148.273C26.5405 148.27 26.5429 148.268 26.5437 148.267C26.5441 148.267 26.5441 148.267 26.5438 148.267C26.5436 148.267 26.543 148.268 26.5429 148.268C26.5422 148.268 26.5415 148.269 24.9139 146.211C23.2864 144.153 23.2854 144.154 23.2844 144.155C23.2839 144.155 23.2827 144.156 23.2817 144.157C23.2798 144.158 23.2774 144.16 23.2746 144.163C23.2691 144.167 23.262 144.173 23.2534 144.18C23.2361 144.193 23.2126 144.212 23.1831 144.236C23.1241 144.284 23.0413 144.352 22.9366 144.44C22.7273 144.616 22.4304 144.87 22.062 145.2C21.3257 145.859 20.3013 146.821 19.1192 148.058C16.7609 150.525 13.7428 154.118 11.1367 158.608C5.91008 167.613 2.25676 180.426 9.19412 194.814L13.9207 192.535ZM28.7306 206.923C22.0472 203.583 16.7975 198.502 13.9207 192.535L9.19412 194.814C12.6441 201.969 18.8134 207.833 26.3852 211.616L28.7306 206.923ZM189.797 186.384C187.642 195.365 181.083 202.575 172.302 206.918L174.628 211.621C184.509 206.735 192.31 198.399 194.9 187.609L189.797 186.384ZM34.9433 103.816C36.5886 101.435 38.4657 99.2155 40.534 97.1524L36.8283 93.4373C34.5516 95.7083 32.466 98.1708 30.6263 100.834L34.9433 103.816ZM161.079 97.1647C163.901 99.9424 166.36 102.993 168.41 106.324L172.878 103.574C170.595 99.8627 167.867 96.4829 164.76 93.425L161.079 97.1647Z" fill="#CCE8E9"/>
<path d="M152.538 137.273C152.538 157.308 134.888 184.975 100.781 184.975C66.6737 184.975 48.5469 157.308 48.5469 137.273" stroke="#CCE8E9" stroke-width="5.24724" stroke-linecap="round"/>
<path d="M144.666 40.4375C141.805 32.5666 133.695 8.00003 101.257 8.00003C68.8193 8.00003 59.5185 31.6126 56.8943 40.4375" stroke="#CCE8E9" stroke-width="5.24724" stroke-linecap="round"/>
<path d="M77.3301 79.7625C78.3677 78.7511 78.389 77.0901 77.3777 76.0524C76.3663 75.0148 74.7053 74.9935 73.6676 76.0048L77.3301 79.7625ZM60.6691 29.1573L62.9841 30.392L65.4533 25.762L63.1383 24.5274L60.6691 29.1573ZM73.6676 76.0048C65.1208 84.335 50.3991 86.4597 37.5515 82.7849C24.7464 79.1222 14.9171 70.074 14.9171 57.1332L9.66984 57.1332C9.66983 73.2908 22.0218 83.8005 36.1085 87.8298C50.1529 91.8469 67.0339 89.7976 77.3301 79.7625L73.6676 76.0048ZM14.9171 57.1332C14.9171 43.864 22.8888 35.1762 32.8296 30.5967C37.815 28.3001 43.23 27.0807 48.2174 26.8851C53.2391 26.6881 57.6266 27.5348 60.6691 29.1573L63.1383 24.5274C59.0251 22.3338 53.6336 21.4214 48.0117 21.6419C42.3555 21.8637 36.2624 23.2381 30.6341 25.8309C19.3476 31.0303 9.66984 41.3042 9.66984 57.1332L14.9171 57.1332Z" fill="#CCE8E9"/>
<path d="M124.231 79.7478C123.193 78.7365 123.172 77.0754 124.183 76.0378C125.195 75.0001 126.856 74.9788 127.893 75.9902L124.231 79.7478ZM140.892 29.1427L138.577 30.3773L136.108 25.7474L138.423 24.5127L140.892 29.1427ZM127.893 75.9902C136.44 84.3204 151.162 86.445 164.009 82.7702C176.815 79.1075 186.644 70.0594 186.644 57.1186L191.891 57.1186C191.891 73.2762 179.539 83.7859 165.452 87.8151C151.408 91.8323 134.527 89.783 124.231 79.7478L127.893 75.9902ZM186.644 57.1186C186.644 43.8493 178.672 35.1616 168.731 30.5821C163.746 28.2854 158.331 27.066 153.344 26.8704C148.322 26.6735 143.934 27.5201 140.892 29.1427L138.423 24.5127C142.536 22.3191 147.927 21.4068 153.549 21.6272C159.205 21.849 165.299 23.2234 170.927 25.8162C182.213 31.0157 191.891 41.2895 191.891 57.1186L186.644 57.1186Z" fill="#CCE8E9"/>
<path d="M48.5469 87.1855V123.916C48.5469 125.76 50.0419 127.255 51.886 127.255H149.675C151.52 127.255 153.015 125.76 153.015 123.916V87.1855" stroke="#CCE8E9" stroke-width="5.24724" stroke-linejoin="round"/>
<path d="M131.072 115.568C132.521 115.568 133.695 114.394 133.695 112.945C133.695 111.496 132.521 110.321 131.072 110.321V115.568ZM48.5469 115.568H131.072V110.321H48.5469V115.568Z" fill="#CCE8E9"/>
<circle cx="80.0303" cy="146.336" r="7.15532" fill="#CCE8E9"/>
<circle cx="122.008" cy="146.336" r="7.15532" fill="#CCE8E9"/>
<path d="M32.0898 281.333H169.472" stroke="#CCE8E9" stroke-width="5.24724" stroke-linecap="round"/>
<path d="M36.371 271.316L33.8599 272.076L34.4238 273.94H36.371V271.316ZM23.7417 229.577L21.3783 228.437C21.0929 229.03 21.0401 229.707 21.2305 230.336L23.7417 229.577ZM177.82 229.577L180.322 230.364C180.526 229.717 180.471 229.017 180.169 228.41L177.82 229.577ZM164.685 271.316V273.94H166.61L167.188 272.104L164.685 271.316ZM38.8822 270.556L26.2529 228.817L21.2305 230.336L33.8599 272.076L38.8822 270.556ZM23.7417 229.577C26.1051 230.716 26.1044 230.717 26.1037 230.719C26.1036 230.719 26.103 230.72 26.1027 230.721C26.1021 230.722 26.1018 230.723 26.1018 230.723C26.1017 230.723 26.1026 230.721 26.1046 230.717C26.1084 230.709 26.1164 230.693 26.1285 230.67C26.1528 230.622 26.1937 230.543 26.2522 230.435C26.3691 230.218 26.5559 229.885 26.819 229.451C27.3453 228.582 28.1763 227.313 29.3628 225.776C31.7356 222.701 35.5287 218.555 41.1523 214.393C52.3665 206.094 71.0117 197.616 100.528 197.616L100.528 192.369C69.9288 192.369 50.1808 201.183 38.0307 210.176C31.9722 214.66 27.8404 219.16 25.2088 222.57C23.8931 224.275 22.952 225.707 22.3319 226.731C22.0217 227.242 21.7917 227.652 21.635 227.942C21.5567 228.087 21.4967 228.202 21.4542 228.285C21.433 228.327 21.4161 228.361 21.4035 228.386C21.3972 228.399 21.3919 228.409 21.3877 228.418C21.3856 228.422 21.3838 228.426 21.3822 228.429C21.3815 228.431 21.3805 228.433 21.3801 228.434C21.3792 228.436 21.3783 228.437 23.7417 229.577ZM100.528 197.616C130.045 197.616 148.821 206.094 160.167 214.401C165.856 218.567 169.714 222.716 172.134 225.795C173.345 227.334 174.195 228.605 174.735 229.474C175.005 229.909 175.197 230.243 175.318 230.461C175.378 230.569 175.42 230.649 175.445 230.696C175.458 230.72 175.466 230.736 175.47 230.744C175.472 230.748 175.473 230.75 175.473 230.75C175.473 230.75 175.473 230.75 175.472 230.748C175.472 230.748 175.471 230.747 175.471 230.746C175.471 230.745 175.47 230.744 177.82 229.577C180.169 228.41 180.169 228.408 180.168 228.406C180.167 228.405 180.166 228.403 180.165 228.402C180.164 228.398 180.162 228.395 180.16 228.39C180.156 228.382 180.15 228.371 180.144 228.359C180.131 228.333 180.114 228.3 180.092 228.258C180.048 228.175 179.987 228.061 179.906 227.916C179.746 227.626 179.51 227.218 179.193 226.707C178.559 225.685 177.598 224.254 176.259 222.551C173.58 219.145 169.387 214.648 163.267 210.168C150.996 201.183 131.127 192.369 100.528 192.369L100.528 197.616ZM175.317 228.789L162.182 270.528L167.188 272.104L180.322 230.364L175.317 228.789ZM164.685 268.692H36.371V273.94H164.685V268.692ZM23.7417 229.577C22.2315 231.722 22.2319 231.722 22.2324 231.723C22.2326 231.723 22.2331 231.723 22.2336 231.723C22.2345 231.724 22.2356 231.725 22.2369 231.726C22.2395 231.728 22.243 231.73 22.2473 231.733C22.2559 231.739 22.2679 231.747 22.2832 231.758C22.3137 231.779 22.3573 231.81 22.4135 231.848C22.526 231.926 22.6888 232.037 22.8976 232.176C23.315 232.456 23.9171 232.852 24.6686 233.325C26.1691 234.269 28.2775 235.53 30.7094 236.794C35.4513 239.258 41.8763 241.979 47.4849 241.979V236.732C43.2425 236.732 37.7959 234.563 33.129 232.138C30.8565 230.957 28.8761 229.773 27.464 228.884C26.7592 228.441 26.199 228.072 25.8182 227.817C25.6279 227.69 25.4826 227.591 25.3867 227.525C25.3388 227.492 25.3032 227.467 25.2805 227.451C25.2692 227.443 25.2611 227.438 25.2563 227.434C25.2539 227.433 25.2523 227.432 25.2516 227.431C25.2512 227.431 25.2511 227.431 25.2511 227.431C25.2511 227.431 25.2513 227.431 25.2513 227.431C25.2516 227.431 25.2519 227.431 23.7417 229.577ZM47.4849 241.979C53.24 241.979 58.0195 239.107 62.0731 236.729C66.3549 234.217 69.9107 232.2 74.0065 232.2V226.953C68.2514 226.953 63.4718 229.825 59.4182 232.203C55.1365 234.715 51.5806 236.732 47.4849 236.732V241.979ZM74.0065 232.2C78.1048 232.2 81.6863 234.22 85.9784 236.731C90.0364 239.104 94.8197 241.979 100.528 241.979V236.732C96.481 236.732 92.9289 234.717 88.6277 232.201C84.5606 229.822 79.759 226.953 74.0065 226.953V232.2ZM100.528 241.979C103.241 241.979 106.018 241.256 108.677 240.295C111.344 239.332 114.082 238.057 116.692 236.846C119.349 235.614 121.884 234.445 124.32 233.576C126.762 232.704 128.932 232.2 130.839 232.2V226.953C128.072 226.953 125.253 227.671 122.557 228.634C119.855 229.598 117.101 230.873 114.485 232.086C111.823 233.32 109.304 234.49 106.895 235.36C104.479 236.233 102.362 236.732 100.528 236.732V241.979ZM130.839 232.2C134.63 232.2 137.967 234.178 142.16 236.712C146.113 239.1 150.835 241.979 156.602 241.979V236.732C152.518 236.732 149.014 234.722 144.874 232.221C140.975 229.865 136.356 226.953 130.839 226.953V232.2ZM156.602 241.979C162.271 241.979 168.09 239.216 172.255 236.716C174.388 235.435 176.193 234.159 177.466 233.202C178.104 232.722 178.612 232.321 178.964 232.035C179.14 231.893 179.277 231.779 179.373 231.699C179.42 231.659 179.458 231.628 179.484 231.605C179.497 231.594 179.508 231.585 179.516 231.578C179.52 231.575 179.523 231.572 179.525 231.57C179.527 231.569 179.528 231.568 179.529 231.567C179.529 231.567 179.53 231.566 179.53 231.566C179.53 231.566 179.531 231.565 177.82 229.577C176.109 227.588 176.109 227.587 176.109 227.587C176.109 227.587 176.11 227.587 176.11 227.587C176.11 227.587 176.11 227.587 176.11 227.587C176.11 227.587 176.109 227.588 176.107 227.589C176.104 227.592 176.098 227.597 176.089 227.604C176.072 227.619 176.044 227.642 176.007 227.674C175.931 227.737 175.814 227.834 175.66 227.958C175.352 228.208 174.895 228.57 174.313 229.007C173.147 229.884 171.495 231.052 169.555 232.217C165.574 234.606 160.785 236.732 156.602 236.732V241.979Z" fill="#CCE8E9"/>
</svg>
