<svg width="47" height="47" viewBox="0 0 47 47" fill="none" xmlns="http://www.w3.org/2000/svg">
<path d="M45.6355 42.0236L32.882 29.2702C35.1922 26.2088 36.5795 22.4124 36.5795 18.2898C36.5795 8.20568 28.3772 0 18.2898 0C8.20568 0 0 8.20568 0 18.2898C0 28.3772 8.20568 36.5795 18.2898 36.5795C22.4124 36.5795 26.2087 35.1922 29.2702 32.882L42.0236 45.6355C42.5212 46.1331 43.177 46.3868 43.8295 46.3868C44.482 46.3868 45.1345 46.1364 45.6355 45.6355C46.634 44.6369 46.634 43.0222 45.6355 42.0236ZM3.625 18.2898C3.625 10.2027 10.206 3.625 18.2898 3.625C26.3768 3.625 32.9545 10.206 32.9545 18.2898C32.9545 26.3735 26.3768 32.9545 18.2898 32.9545C10.2027 32.9545 3.625 26.3768 3.625 18.2898Z" fill="#CCE8E9"/>
</svg>
