<?xml version="1.0" encoding="UTF-8" standalone="no"?>
<svg
   viewBox="0 0 1821.3333 1024"
   height="1024"
   width="1821.3333"
   xml:space="preserve"
   id="svg2"
   version="1.1"
   sodipodi:docname="yape-seeklogo.com.svg"
   xmlns:inkscape="http://www.inkscape.org/namespaces/inkscape"
   xmlns:sodipodi="http://sodipodi.sourceforge.net/DTD/sodipodi-0.dtd"
   xmlns="http://www.w3.org/2000/svg"
   xmlns:svg="http://www.w3.org/2000/svg"
   xmlns:rdf="http://www.w3.org/1999/02/22-rdf-syntax-ns#"
   xmlns:cc="http://creativecommons.org/ns#"
   xmlns:dc="http://purl.org/dc/elements/1.1/"><sodipodi:namedview
     id="namedview75"
     pagecolor="#505050"
     bordercolor="#eeeeee"
     borderopacity="1"
     inkscape:showpageshadow="0"
     inkscape:pageopacity="0"
     inkscape:pagecheckerboard="0"
     inkscape:deskcolor="#505050"
     showgrid="false" /><metadata
     id="metadata8"><rdf:RDF><cc:Work
         rdf:about=""><dc:format>image/svg+xml</dc:format><dc:type
           rdf:resource="http://purl.org/dc/dcmitype/StillImage" /></cc:Work></rdf:RDF></metadata><defs
     id="defs6"><clipPath
       clipPathUnits="userSpaceOnUse"
       id="clipPath2103"><g
         id="g2109"><g
           id="g2107"
           transform="matrix(3.5721349,0,0,3.5721349,-2337.485,-1643.5914)"><path
             id="path2105"
             d="M 0,2.56e-5 H 1821.3333 V 1024 H 0 Z"
             style="stroke-width:1.33333" /></g></g></clipPath></defs><path
     id="path24"
     style="fill:#22293b;fill-opacity:1;fill-rule:nonzero;stroke:none;stroke-width:4.76285"
     d="m 1447.6291,98.55217 c 7.0157,-10.916444 20.7898,-21.35184 32.1159,-11.835673 6.7061,5.634447 8.3064,24.204783 4.6152,34.135323 -13.4503,36.17382 -43.099,54.84894 -78.3584,65.40817 -2.4386,-1.78131 -4.8771,-3.56261 -7.3109,-5.34392 16.1984,-27.52449 31.6824,-55.51097 48.9382,-82.3639 m -66.1988,176.64445 c 2.4672,-12.42627 8.6874,-18.00356 22.4235,-20.82793 77.8725,-16.02222 138.2178,-79.3395 151.8538,-156.907212 8.6065,-48.923958 -19.8325,-84.202361 -69.4137,-86.226571 -27.0911,-1.109743 -51.0149,7.320495 -70.7616,25.552671 -78.3536,72.342872 -109.1359,165.427942 -117.2565,267.881532 1.8241,17.12243 2.7005,33.41613 5.4344,49.39072 9.5257,55.62528 52.7533,83.74989 107.2164,69.89477 46.3282,-11.78805 82.402,-39.65546 114.7227,-73.62884 21.5947,-22.69973 24.1333,-33.25896 11.588,-61.39786 -10.483,-23.52846 -20.1373,-23.88091 -38.6505,-5.48203 -17.613,17.51298 -36.793,33.89718 -57.2256,47.9571 -15.0268,10.3449 -34.2163,17.43678 -51.2149,4.3199 -17.4606,-13.46933 -13.274,-33.90194 -11.0974,-52.76758 0.3,-2.63861 1.8527,-5.11529 2.3814,-7.75867 M 414.22955,893.8094 c -9.53521,11.1784 -21.15656,21.3947 -33.72095,28.84379 -7.63008,4.52471 -22.38538,7.20619 -27.67214,2.93868 -6.6394,-5.35344 -11.16887,-19.74676 -8.99701,-28.31512 5.07719,-20.05635 12.60249,-40.16032 22.85213,-58.12578 33.48281,-58.6735 82.04003,-101.18667 148.69131,-131.62126 -26.44333,70.78542 -55.73007,133.02154 -101.15334,186.27969 M 943.31511,183.59279 c -17.67492,59.44985 -37.03113,118.40913 -56.38734,177.34459 -2.43381,7.41099 -7.87775,14.30759 -13.30739,20.17065 -14.0885,15.2173 -34.90214,13.38836 -43.49908,-5.34867 -6.86802,-14.96963 -9.33994,-31.94918 -12.48818,-43.40382 7.83488,-59.37365 19.70866,-111.22676 61.41214,-150.03443 10.53065,-9.79241 24.3048,-17.21769 37.86939,-22.33298 16.8319,-6.34888 31.53481,6.33458 26.40046,23.60466 m 157.73599,163.98004 c 14.3171,-53.43437 27.5435,-107.24977 44.6802,-159.78397 5.9583,-18.25599 20.1992,-35.05931 34.0782,-49.15734 16.408,-16.67472 32.8874,-10.82595 38.6457,11.7166 2.9816,11.67374 3.5817,23.95236 4.5247,30.68702 -2.5719,54.96801 -16.9986,101.38195 -38.5171,145.33826 -12.6311,25.81463 -31.6587,46.24248 -64.6938,43.38001 -13.2645,-1.14785 -22.8045,-6.90613 -18.7179,-22.18058 m 323.5639,127.90148 c -74.3004,5.63445 -148.577,11.63087 -222.7488,18.72275 -45.5233,4.35324 -90.837,10.92597 -138.4321,16.76522 5.001,-33.34945 9.6305,-64.22222 14.6172,-97.48594 6.3822,4.5628 9.6304,6.90612 12.893,9.2161 45.7614,32.37783 89.5701,28.11985 126.8108,-13.37883 28.739,-32.02062 44.1325,-71.29981 56.1539,-111.73161 19.1038,-64.21746 32.0873,-129.21126 14.2505,-196.15307 -15.5221,-58.240087 -72.1095,-73.062065 -115.8991,-30.682257 -8.7494,8.458815 -17.7083,16.703302 -25.3622,23.909489 -1.9575,-6.868025 -1.8051,-16.63186 -6.6061,-21.380418 -21.1899,-20.93271 -55.9015,-10.487788 -61.555,18.022611 -16.2032,81.716155 -31.5824,163.608535 -48.5096,245.172285 -2.0956,10.0877 -10.3687,19.90393 -18.1083,27.45304 -5.0915,4.96765 -14.36952,5.63921 -21.77098,8.23496 -2.65291,-8.01587 -8.31117,-16.37466 -7.43004,-23.98093 3.33875,-28.89142 7.98729,-57.69712 13.6265,-86.24086 9.83532,-49.81937 21.09462,-99.35297 31.05852,-149.14377 3.6055,-18.036899 -3.7817,-29.486781 -22.8474,-34.135319 -26.94339,-6.567966 -31.79197,-4.610436 -49.1716,26.586209 -47.05216,-27.672138 -80.9922,-22.961683 -119.58078,16.92239 -32.78744,33.89718 -52.80568,75.28632 -68.39448,119.03782 -21.48043,60.27382 -32.89221,121.70025 -17.91783,185.49858 6.62512,28.22463 21.67096,49.10018 51.1244,57.72094 31.51099,9.22087 57.71617,0.40008 79.39665,-22.60924 9.60666,-10.19725 17.01288,-22.45682 26.22423,-34.85927 6.1917,22.53779 19.56101,40.30797 42.85609,38.85054 20.33259,-1.27168 40.13651,-10.97836 60.53102,-17.06528 -3.3816,16.9605 -8.3636,34.66876 -10.07819,52.68661 -1.54316,16.2032 -9.31612,20.88508 -24.22383,23.13791 -83.05452,12.53581 -165.97091,25.99561 -248.90636,39.33634 -26.31949,4.22941 -52.54372,9.0637 -81.85427,14.15042 12.05,-42.87514 23.13314,-81.91619 33.98767,-121.01916 29.54393,-106.3877 59.38793,-212.6992 88.21268,-319.28694 7.51577,-27.78168 -4.12463,-38.726701 -32.09683,-32.02061 -32.95413,7.8968 -53.37245,28.78188 -64.79376,61.06921 -22.80451,64.46989 -46.19485,128.80166 -72.10473,192.05702 -7.33478,17.91783 -22.7283,33.54473 -37.39311,46.98548 -6.81563,6.24886 -23.60943,9.6019 -30.61557,5.42488 -7.13475,-4.25322 -11.36892,-19.66103 -10.53066,-29.65348 1.62413,-19.37049 6.97757,-38.56477 12.06905,-57.47803 10.55447,-39.21251 23.39511,-77.86301 32.47785,-117.38987 5.93451,-25.83368 -15.31255,-46.32345 -45.10891,-47.77612 -19.46099,-0.9478 -24.92874,8.46834 -26.40999,38.78386 -0.71442,14.59336 -4.01984,29.37724 -8.31116,43.41335 -6.52987,21.35184 -16.49374,41.71777 -22.20439,63.24107 -10.74022,40.51277 -21.69001,81.20177 -28.33894,122.49565 -4.87715,30.31075 1.70034,60.69295 30.49174,78.787 29.00574,18.22742 57.49232,10.6402 83.29742,-8.4731 14.44095,-10.69735 27.55783,-23.18554 43.68007,-36.91206 -15.1268,46.31392 -28.91524,90.06543 -44.11349,133.3216 -2.20996,6.28695 -10.56399,11.36891 -17.17482,14.99344 -36.71678,20.16589 -75.76736,36.75488 -110.32181,60.05949 -78.0821,52.6485 -132.6929,123.40059 -152.1396,217.73352 -8.55884,41.53202 -0.93828,79.12993 33.59712,106.39247 35.73087,28.2056 74.73858,23.6237 113.11283,5.00098 37.06447,-17.9845 63.37444,-48.21429 87.96025,-80.13965 50.05275,-64.98904 79.01086,-140.19438 104.0158,-217.09054 4.82953,-14.85055 12.06906,-22.11389 27.10536,-25.11925 85.67885,-17.11767 171.17194,-35.17362 256.85078,-52.32463 28.25797,-5.6535 56.86839,-9.54951 86.8648,-14.50287 0.49057,10.15915 -1.05736,17.66064 1.5384,23.22364 4.82476,10.34967 10.2544,24.78585 18.83229,27.78645 8.52551,2.98154 23.86661,-3.26255 31.41101,-10.48779 8.6779,-8.30164 14.3933,-21.59475 17.1367,-33.68761 2.9768,-13.09783 9.3209,-17.77495 21.4852,-19.32763 77.9773,-9.94006 155.9308,-20.0754 233.851,-30.44888 46.3044,-6.16312 92.7659,-11.58801 138.6941,-19.90394 23.6189,-4.28179 31.2204,-25.01447 21.8805,-47.19504 -7.0205,-16.68425 -20.2659,-24.38101 -37.0407,-23.10933"
     clip-path="url(#clipPath2103)" /></svg>
